<svg xmlns="http://www.w3.org/2000/svg" viewBox="0 0 765 120">
  <g fill-rule="nonzero" fill="none">
    <path class="box" d="M106.2 81.6c-.1 2.7-1.6 5.1-4.5 6.6-2.3 1.2-4.9 1.7-7.4 2.4-5.4 1.6-10.8 3.2-16.2 4.7-1.2.3-1.2.8-.7 1.7 1.1 1.8 2.1 3.7 2.2 5.8.3 4.5-2.5 8.3-7.2 9.5-7.2 1.8-14.5 3.6-21.7 5.4-2.3.6-4.6 1.3-7 1.5-5.6.6-10.2-1.7-12.4-6.6-1.6-3.4-1.7-3.3-5.3-2.2-3.3 1-6.6 2-10.1 1.2-3.9-.8-7.1-2.6-9.5-5.9-1-1.3-2-2.6-2.9-3.9-3.9-5.2-4.3-12.2-.9-17.7C12.7 67.2 22.8 50.4 33 33.5c3.5-5.9 7-11.8 10.6-17.6 1.3-2.1 2.9-3.8 5.3-4.5 3.3-1 6.7.2 9.1 3.3 3.9 5 7.8 10.1 11.7 15.2C81 44.7 92.3 59.5 103.6 74.2c1.3 2.1 2.7 4.2 2.6 7.4zM6.9 92c-.1 2.4.5 4.4 2 6.1l2.7 3.6c2.5 3.1 6 4.3 9.8 3.2 25.1-7.3 50.2-14.6 75.3-21.8 3.5-1 3.8-1.8 1.6-4.7-10.5-13.8-21.1-27.5-31.6-41.3-4.6-6-9.1-12-13.7-18-1.5-2-2.5-1.9-3.8.2-.1.2-.2.3-.3.5-5.5 9.1-11 18.2-16.4 27.2-8 13.3-16 26.7-24 40-1 1.6-1.7 3.3-1.6 5zm35.9 20.7c.8 0 1.7-.1 2.5-.3 4.4-1.1 8.9-2.2 13.3-3.3 4-1 8-1.9 11.9-3 2.5-.6 3.1-2.1 1.9-4.4-.5-1-1.1-1.9-1.6-3-.5-.9-1-1-1.9-.8-5.8 1.7-11.5 3.4-17.3 5-4.7 1.4-9.5 2.8-14.2 4.1-1.1.3-1.2.7-.7 1.8 1.3 2.7 3.3 4 6.1 3.9zM88.214 38.09l27.166-20.445 4.029 5.353-27.166 20.445zM101.19 54.606l23.101-4.31 1.23 6.587-23.102 4.31zM71.954 23.945l9.668-22.73 6.166 2.623-9.668 22.73z"/>
    <path class="black" d="M157 106.9h-17.2V15.6h32.9c4 0 7.6 1.2 10.7 3.7 3.1 2.2 5.6 5.3 7.4 9.1 1.8 3.8 2.7 7.9 2.7 12.4v8c0 4.5-.9 8.7-2.7 12.4-1.8 3.8-4.3 6.8-7.4 9.1-3.1 2.4-6.7 3.5-10.7 3.5H157v33.1zm14.4-49.8c.7-.1 1.2-.3 1.7-.8 2-2 3-4.5 3-7.6v-8c0-2.7-.4-4.8-1.3-6.2-.9-1.4-1.6-2-2.2-2H157V57l14.4.1zm87.2 49.8h-19.2L223.1 74h-3.7v32.9h-17.2V15.6H235c4 0 7.6 1.2 10.7 3.5 3.1 2.4 5.6 5.4 7.4 9.2 1.8 3.8 2.7 7.9 2.7 12.4v8c0 2.2-.3 4.6-.8 7.1-1.4 6.9-4.4 12-8.9 15.3-1.7 1.2-3.1 2-4.1 2.3l16.6 33.5zM235 57.2c.6 0 1.3-.7 2.2-2.1.9-1.4 1.3-3.5 1.3-6.3v-8c0-3.2-1.1-5.8-3.2-7.8-.4-.4-1-.6-1.8-.6h-14.2l.1 24.8H235z"/>
    <path class="box item2" fill="#EB4E53" d="M329.5 106.9h-17.7l-13.4-63.1-13.4 63.1h-17.7l19.5-91.2h23.3l19.4 91.2zm68 0h-16.8l-25-48.9v48.9h-17.4V15.6h16.8l25 49.1V15.6h17.4v91.3zm25.7 0l-15.8-.1V15.6h29c5.1 0 9.7 1.4 13.8 4.2 4.1 2.8 7.4 6.5 9.8 11 2.4 4.5 3.6 9.6 3.6 15.3v30c0 5.6-1.2 10.7-3.6 15.4-2.4 4.6-5.7 8.3-9.8 11.2-4.1 2.8-8.8 4.2-13.8 4.2h-13.2zm13.2-17.7c2.6 0 5-1.3 7-3.8s3-5.6 3-9.3V46.7c0-3.7-1-6.8-3-9.2-2-2.5-4.3-3.8-6.9-3.8h-11.7v55.5h11.6z"/>
    <path class="black item2" fill="#000" d="M489.6 106.9h-17.2V15.6h32.9c4 0 7.6 1.2 10.7 3.7 3.1 2.2 5.6 5.3 7.4 9.1 1.8 3.8 2.7 7.9 2.7 12.4v8c0 4.5-.9 8.7-2.7 12.4-1.8 3.8-4.3 6.8-7.4 9.1-3.1 2.4-6.7 3.5-10.7 3.5h-15.6v33.1h-.1zm14.5-49.8c.7-.1 1.2-.3 1.7-.8 2-2 3-4.5 3-7.6v-8c0-2.7-.4-4.8-1.3-6.2-.9-1.4-1.6-2-2.2-2h-15.6V57l14.4.1zm87.1 49.8H572L555.7 74H552v32.9h-17.2V15.6h32.9c4 0 7.6 1.2 10.7 3.5 3.1 2.4 5.6 5.4 7.4 9.2 1.8 3.8 2.7 7.9 2.7 12.4v8c0 2.2-.3 4.6-.8 7.1-1.4 6.9-4.4 12-8.9 15.3-1.7 1.2-3.1 2-4.1 2.3l16.5 33.5zm-23.6-49.7c.6 0 1.3-.7 2.2-2.1.9-1.4 1.3-3.5 1.3-6.3v-8c0-3.2-1.1-5.8-3.2-7.8-.4-.4-1-.6-1.8-.6h-14.2l.1 24.8h15.6zm32.2-24.6V15.9h44v16.7h-44zm0 37V52.9h44v16.7h-44zm0 37.3V90.2h44v16.7h-44zm78.3.6c-8.5 0-14.8-2.1-19.1-6.2-4.3-4.1-6.4-9.8-6.4-17.1V78H671v7.2c0 4.9 2.3 7.4 7 7.4 2.2 0 3.9-.5 5.1-1.6 1.2-1.1 1.9-3.1 1.9-6 0-3.5-.9-6.6-2.8-9.3-1.9-2.7-5.5-5.9-10.6-9.7-6.9-5.1-11.7-9.8-14.5-14.1-2.8-4.3-4.2-9-4.2-14.3 0-7.2 2.2-12.8 6.7-16.9 4.4-4.1 10.8-6.2 19.2-6.2 8.4 0 14.7 2.1 18.9 6.2 4.2 4.1 6.3 9.9 6.3 17.1v4.9h-18.4V37c0-2.9-.6-4.8-1.7-5.9-1.2-1.1-2.8-1.6-5-1.6-4.5 0-6.7 2.4-6.7 7.3 0 3 1 5.8 3 8.5 2 2.6 5.5 5.9 10.7 9.7 6.9 5 11.6 9.7 14.3 14.1 2.7 4.3 4.1 9.3 4.1 15 0 7.4-2.2 13.1-6.7 17.3-4.6 4-11.1 6.1-19.5 6.1zm60.3 0c-8.5 0-14.8-2.1-19.1-6.2-4.3-4.1-6.4-9.8-6.4-17.1V78h18.4v7.2c0 4.9 2.3 7.4 7 7.4 2.2 0 3.9-.5 5.1-1.6 1.2-1.1 1.9-3.1 1.9-6 0-3.5-.9-6.6-2.8-9.3-1.9-2.7-5.5-5.9-10.6-9.7-6.9-5.1-11.7-9.8-14.5-14.1-2.8-4.3-4.2-9-4.2-14.3 0-7.2 2.2-12.8 6.7-16.9 4.4-4.1 10.8-6.2 19.2-6.2 8.4 0 14.7 2.1 18.9 6.2 4.2 4.1 6.3 9.9 6.3 17.1v4.9h-18.4V37c0-2.9-.6-4.8-1.7-5.9-1.2-1.1-2.8-1.6-5-1.6-4.5 0-6.7 2.4-6.7 7.3 0 3 1 5.8 3 8.5 2 2.6 5.5 5.9 10.7 9.7 6.9 5 11.6 9.7 14.3 14.1 2.7 4.3 4.1 9.3 4.1 15 0 7.4-2.2 13.1-6.7 17.3-4.6 4-11.1 6.1-19.5 6.1z"/>
  </g>
  <style>
        .box {
            stroke: #EB4E53;
            fill: transparent;
            stroke-width: 1px;
            stroke-linejoin: round;
            stroke-linecap: round;
            stroke-dasharray: 1000;
            stroke-dashoffset: 1000;
            animation: boxanim 5s linear alternate infinite;
        }
        .black {
            stroke: #000000;
            fill: transparent;
            stroke-width: 1px;
            stroke-linejoin: round;
            stroke-linecap: round;
            stroke-dasharray: 1000;
            stroke-dashoffset: 1000;
            animation: blackanim 5s linear alternate infinite;
        }
        .black {animation-delay: 0.4s;}
        .box.item2 {animation-delay: 0.4s;}
        .black.item2 {animation-delay: 0.4s;}
        @keyframes boxanim {
            0%   { stroke-dashoffset: 1000; fill: transparent;}
            25%   { stroke-dashoffset: 600; fill: transparent;}
            50%   { stroke-dashoffset: 300; fill: transparent;}
            75%   { stroke-dashoffset: 0; fill: #EB4E53;}
            100%   { stroke-dashoffset: 0; fill: #EB4E53;}
        }
        @keyframes blackanim {
            0%   { stroke-dashoffset: 1000; fill: transparent;}
            25%   { stroke-dashoffset: 600; fill: transparent;}
            50%   { stroke-dashoffset: 300; fill: transparent;}
            75%   { stroke-dashoffset: 0; fill: #000000;}
            100%   { stroke-dashoffset: 0; fill: #000000;}
        }
    </style>
</svg>